<svg xmlns="http://www.w3.org/2000/svg" xmlns:xlink="http://www.w3.org/1999/xlink" width="100" height="100" version="1.1" viewBox="0 0 100 100"><title>noun_217979_3EB995</title><desc>Created with Sketch.</desc><g id="Icons" fill="none" fill-rule="evenodd" stroke="none" stroke-width="1"><g id="noun_217979_3EB995" fill="#3EB995"><path id="Shape" d="M50,0 C22,0 0,22 0,50 C0,78 22,100 50,100 C78,100 100,78 100,50 C100,22 78,0 50,0 L50,0 Z M44,75 L44,75 L31,75 L31,50 L31,25 L44,25 L44,75 L44,75 Z M69,75 L69,75 L56,75 L56,50 L56,25 L69,25 L69,75 L69,75 Z"/></g></g></svg>