<svg xmlns="http://www.w3.org/2000/svg" xmlns:xlink="http://www.w3.org/1999/xlink" width="86" height="86" version="1.1" viewBox="0 0 86 86"><title>Slice</title><desc>Created with Sketch.</desc><g id="Page-1" fill="none" fill-rule="evenodd" stroke="none" stroke-width="1"><g id="noun_302883_3EB995" fill="#3eb995"><g id="Group"><path id="Shape" d="M57.574,9.624 L57.574,0 L28.424,0 L28.424,9.624 L0.074,9.624 L0.074,26.775 L11.174,26.775 L11.174,85.576 L74.826,85.576 L74.826,26.775 L85.926,26.775 L85.926,9.624 L57.574,9.624 Z M32.074,3 L54.074,3 L54.074,9.323 L32.074,9.323 L32.074,0.676 L32.074,3 Z M70.574,81.324 L15.426,81.324 L15.426,26.775 L70.574,26.775 L70.574,81.324 L70.574,81.324 Z M81.674,22.523 L74.826,22.523 L11.174,22.523 L4.326,22.523 L4.326,13.876 L81.674,13.876 L81.674,22.523 L81.674,22.523 Z"/><rect id="Rectangle-path" width="4.252" height="27.899" x="26.85" y="38.45"/><rect id="Rectangle-path" width="4.252" height="27.899" x="54.824" y="38.45"/><rect id="Rectangle-path" width="4.252" height="27.899" x="40.836" y="38.45"/></g></g></g></svg>